<svg width="48" height="48" viewBox="0 0 48 48" fill="none" xmlns="http://www.w3.org/2000/svg">
<path fill-rule="evenodd" clip-rule="evenodd" d="M37.6632 30.6326L34.6521 27.4663V22.0721C34.6447 16.0418 30.3175 10.9861 24.6152 10.3453V8H22.3848V10.3453C16.7022 11.0265 12.3956 16.0581 12.3479 22.0721V27.4663L9.33685 30.6326C9.11657 30.8416 8.99432 31.1415 9.00229 31.4534V34.9714C8.98235 35.2884 9.09342 35.599 9.30704 35.8237C9.52066 36.0483 9.81605 36.1651 10.1175 36.1441H18.7934C18.7934 39.3823 22.0423 40 23.7812 40C25.6374 40 28.1287 39.0857 28.2066 36.1441H36.8825C37.1839 36.1651 37.4793 36.0483 37.693 35.8237C37.9066 35.599 38.0177 35.2884 37.9977 34.9714V31.4534C38.0057 31.1415 37.8834 30.8416 37.6632 30.6326Z" fill="url(#paint0_linear_18972_415221)"/>
<path d="M39.0912 26.6283C38.5964 26.1326 38.5964 25.329 39.0912 24.8333C40.9288 22.9924 40.9288 20.0076 39.0912 18.1667C38.5964 17.671 38.5964 16.8674 39.0912 16.3718C39.586 15.8762 40.3881 15.8762 40.8829 16.3718C43.7057 19.1995 43.7057 23.8006 40.8829 26.6283C40.3881 27.1239 39.586 27.1239 39.0912 26.6283ZM8.90884 26.6282C9.40364 26.1325 9.40364 25.3289 8.90884 24.8332C7.07121 22.9923 7.07121 20.0075 8.90884 18.1666C9.40364 17.6709 9.40364 16.8674 8.90884 16.3718C8.41404 15.8761 7.61187 15.8761 7.11707 16.3718C4.29431 19.1994 4.29431 23.8005 7.11707 26.6283C7.61187 27.1239 8.41404 27.1239 8.90884 26.6282Z" fill="url(#paint1_linear_18972_415221)"/>
<defs>
<linearGradient id="paint0_linear_18972_415221" x1="9" y1="8" x2="38.6532" y2="41.3146" gradientUnits="userSpaceOnUse">
<stop stop-color="#F5C242"/>
<stop offset="1" stop-color="#EB712D"/>
</linearGradient>
<linearGradient id="paint1_linear_18972_415221" x1="12.0293" y1="17.9223" x2="15.5422" y2="28.987" gradientUnits="userSpaceOnUse">
<stop stop-color="#FFDB5E"/>
<stop offset="1" stop-color="#F29239"/>
</linearGradient>
</defs>
</svg>
