<svg width="48" height="48" viewBox="0 0 48 48" fill="none" xmlns="http://www.w3.org/2000/svg">
<path d="M24 41C33.3888 41 41 33.3888 41 24C41 14.6112 33.3888 7 24 7C14.6112 7 7 14.6112 7 24C7 33.3888 14.6112 41 24 41Z" fill="url(#paint0_linear_18972_415220)"/>
<path fill-rule="evenodd" clip-rule="evenodd" d="M33.1204 18.6557C33.8629 19.2744 33.9632 20.3779 33.3445 21.1204L24.9125 31.2387C23.3937 33.0612 20.5855 33.0332 19.1034 31.1806L14.6335 25.5933C14.0298 24.8386 14.1521 23.7373 14.9068 23.1335C15.6616 22.5298 16.7628 22.6521 17.3666 23.4068L21.8365 28.9942C21.9353 29.1177 22.1225 29.1196 22.2237 28.998L30.6557 18.8797C31.2744 18.1372 32.3779 18.0369 33.1204 18.6557Z" fill="white"/>
<defs>
<linearGradient id="paint0_linear_18972_415220" x1="10.5789" y1="7.89474" x2="32.5" y2="39.6579" gradientUnits="userSpaceOnUse">
<stop stop-color="#C9EFE4"/>
<stop offset="1" stop-color="#6BC8AC"/>
</linearGradient>
</defs>
</svg>
