<svg width="48" height="48" viewBox="0 0 48 48" fill="none" xmlns="http://www.w3.org/2000/svg">
<path d="M21.0342 8.71229C22.3523 6.42924 25.6477 6.42924 26.9658 8.71229L42.5361 35.6809C43.8542 37.9639 42.2066 40.8177 39.5703 40.8177H8.42969C5.79344 40.8177 4.14579 37.9639 5.46392 35.6809L21.0342 8.71229Z" fill="url(#paint0_linear_18972_415219)"/>
<path fill-rule="evenodd" clip-rule="evenodd" d="M25.9813 19.7077C26.0067 19.0457 25.4728 18.4973 24.8104 18.5049L22.8286 18.5277C22.1661 18.5353 21.645 19.096 21.6857 19.7572L22.2225 28.4785C22.2604 29.0947 22.7748 29.5728 23.3921 29.5657L24.5012 29.5529C25.1185 29.5458 25.6217 29.0559 25.6454 28.4391L25.9813 19.7077ZM25.9651 32.5519C26.0909 33.2566 25.5539 33.9056 24.8381 33.9138L23.1556 33.9332C22.4398 33.9415 21.888 33.305 21.9975 32.5976L22.1521 31.5995C22.2387 31.0399 22.7173 30.6249 23.2835 30.6184L24.6339 30.6029C25.2001 30.5963 25.6881 31.0001 25.7876 31.5576L25.9651 32.5519Z" fill="white"/>
<defs>
<linearGradient id="paint0_linear_18972_415219" x1="7.5" y1="6" x2="25.5" y2="36" gradientUnits="userSpaceOnUse">
<stop stop-color="#FFE3DC"/>
<stop offset="1" stop-color="#E26262"/>
</linearGradient>
</defs>
</svg>
