<svg width="16" height="17" viewBox="0 0 16 17" fill="none" xmlns="http://www.w3.org/2000/svg">
<path fill-rule="evenodd" clip-rule="evenodd" d="M11.12 4.01998C11.12 3.57815 10.7618 3.21998 10.32 3.21998H3.52C3.07817 3.21998 2.72 3.57815 2.72 4.01998V10.82C2.72 11.2618 3.07817 11.62 3.52 11.62H10.32C10.7618 11.62 11.12 11.2618 11.12 10.82V4.01998ZM3.6 2.09998C2.49543 2.09998 1.6 2.9954 1.6 4.09997V10.74C1.6 11.8445 2.49543 12.74 3.6 12.74H10.24C11.3446 12.74 12.24 11.8445 12.24 10.74V4.09998C12.24 2.99541 11.3446 2.09998 10.24 2.09998H3.6Z" fill="#323232"/>
<path d="M4.08007 13.6999H12.4001C12.8419 13.6999 13.2001 13.3418 13.2001 12.8999V4.57993C13.2001 4.35902 13.3792 4.17993 13.6001 4.17993H13.9201C14.141 4.17993 14.3201 4.35902 14.3201 4.57993V12.8199C14.3201 13.9245 13.4246 14.8199 12.3201 14.8199H4.08007C3.85915 14.8199 3.68007 14.6408 3.68007 14.4199V14.0999C3.68007 13.879 3.85916 13.6999 4.08007 13.6999Z" fill="#323232"/>
</svg>
