<?xml version="1.0" encoding="utf-8"?>
<!-- Generator: Adobe Illustrator 24.0.0, SVG Export Plug-In . SVG Version: 6.00 Build 0)  -->
<svg version="1.1" id="圖層_1" xmlns="http://www.w3.org/2000/svg" xmlns:xlink="http://www.w3.org/1999/xlink" x="0px" y="0px"
	 viewBox="0 0 23 24" style="enable-background:new 0 0 23 24;" xml:space="preserve">
<style type="text/css">
	.st0{fill:currentColor;}
	.st1{fill-rule:evenodd;clip-rule:evenodd;fill:currentColor;}
</style>
<path class="st0" d="M20,5h-1.9h-1.9V4c0-0.8-0.3-1.5-0.8-2.1C14.9,1.3,14.1,1,13.3,1H9.5C8.7,1,8,1.3,7.4,1.9
	C6.9,2.5,6.6,3.2,6.6,4v1H4.8H2.9c-0.6,0-1,0.4-1,1s0.4,1,1,1h0.9v13c0,0.8,0.3,1.5,0.8,2.1C5.1,22.7,5.9,23,6.7,23h9.5
	c0.8,0,1.5-0.3,2.1-0.9c0.5-0.6,0.8-1.3,0.8-2.1V7H20c0.6,0,1-0.4,1-1S20.5,5,20,5z M8.6,4c0-0.3,0.1-0.5,0.3-0.7
	C9.1,3.1,9.3,3,9.5,3h3.8c0.2,0,0.4,0.1,0.6,0.3c0.2,0.2,0.3,0.4,0.3,0.7v1H8.6V4z M17.1,20c0,0.3-0.1,0.5-0.3,0.7
	c-0.2,0.2-0.4,0.3-0.6,0.3H6.7c-0.2,0-0.4-0.1-0.6-0.3c-0.2-0.2-0.3-0.4-0.3-0.7V7h11.3V20z"/>
<path class="st1" d="M9.5,10c0.6,0,1,0.4,1,1v6c0,0.6-0.4,1-1,1c-0.6,0-1-0.4-1-1v-6C8.5,10.4,9,10,9.5,10z"/>
<path class="st1" d="M13.3,10c0.6,0,1,0.4,1,1v6c0,0.6-0.4,1-1,1c-0.6,0-1-0.4-1-1v-6C12.3,10.4,12.8,10,13.3,10z"/>
</svg>
