<svg width="16" height="16" viewBox="0 0 16 16" fill="none" xmlns="http://www.w3.org/2000/svg">
<path fill-rule="evenodd" clip-rule="evenodd" d="M8 1C4.2 1 1 4.2 1 8C1 11.8 4.2 15 8 15C11.8 15 15 11.9 15 8C15 4.1 11.9 1 8 1ZM8 12.2C7.6 12.2 7.2 11.8 7.2 11.4C7.2 11 7.5 10.6 8 10.6C8.4 10.6 8.8 11 8.8 11.4C8.8 11.8 8.4 12.2 8 12.2ZM7.5 4H8.5V9H7.5V4Z" fill="#DF0505"/>
<path opacity="0.01" fill-rule="evenodd" clip-rule="evenodd" d="M8.0002 12.2C7.6002 12.2 7.2002 11.8 7.2002 11.4C7.2002 11 7.5002 10.6 8.0002 10.6C8.4002 10.6 8.8002 11 8.8002 11.4C8.8002 11.8 8.4002 12.2 8.0002 12.2ZM7.5002 4H8.5002V9H7.5002V4Z" fill="#DF0505"/>
</svg>
