<?xml version="1.0" encoding="utf-8"?>
<!-- Generator: Adobe Illustrator 24.0.0, SVG Export Plug-In . SVG Version: 6.00 Build 0)  -->
<svg version="1.1" id="圖層_1" xmlns="http://www.w3.org/2000/svg" xmlns:xlink="http://www.w3.org/1999/xlink" x="0px" y="0px"
	 viewBox="0 0 24 24" style="enable-background:new 0 0 24 24;" xml:space="preserve">
<style type="text/css">
	.st0{fill:currentColor;}
</style>
<path class="st0" d="M20.61,9c-0.01-0.07-0.02-0.14-0.04-0.21c-0.03-0.07-0.07-0.13-0.11-0.19c-0.03-0.04-0.04-0.09-0.08-0.13
	l-6.44-7.05c-0.01-0.01-0.01-0.01-0.02-0.01c-0.05-0.06-0.12-0.09-0.18-0.13c-0.05-0.03-0.09-0.07-0.13-0.09
	c-0.05-0.02-0.1-0.02-0.15-0.04c-0.08-0.02-0.15-0.04-0.23-0.05c-0.01,0-0.01,0-0.02,0H5.43c-1.14,0-2.07,0.93-2.07,2.07v17.66
	c0,1.14,0.93,2.07,2.07,2.07h13.14c1.14,0,2.07-0.93,2.07-2.07V9.15C20.64,9.1,20.62,9.05,20.61,9z M14.2,4.68l3.16,3.46L14.2,8.11
	V4.68z M18.57,20.9L5.36,20.83L5.43,3.1h6.77v5.01c0,1.12,0.92,2.04,2.04,2.04h4.4L18.57,20.9z"/>
</svg>
