<svg width="16" height="17" viewBox="0 0 16 17" fill="none" xmlns="http://www.w3.org/2000/svg">
<path fill-rule="evenodd" clip-rule="evenodd" d="M8.00313 15.3002C6.65822 15.3002 5.3435 14.9014 4.22525 14.1542C3.107 13.407 2.23542 12.345 1.72075 11.1024C1.20607 9.85991 1.07141 8.49266 1.33379 7.17358C1.59617 5.85451 2.2438 4.64287 3.1948 3.69187C4.1458 2.74088 5.35744 2.09324 6.67651 1.83086C7.99559 1.56848 9.36284 1.70314 10.6054 2.21782C11.8479 2.73249 12.9099 3.60407 13.6571 4.72232C14.4043 5.84058 14.8031 7.15529 14.8031 8.5002C14.8012 10.3031 14.0841 12.0315 12.8093 13.3064C11.5345 14.5812 9.806 15.2983 8.00313 15.3002ZM8.00313 2.83353C6.88237 2.83353 5.78678 3.16588 4.8549 3.78854C3.92302 4.4112 3.19671 5.29621 2.76781 6.33166C2.33891 7.36711 2.2267 8.50648 2.44535 9.60571C2.66399 10.7049 3.20369 11.7146 3.99619 12.5071C4.78869 13.2996 5.79839 13.8393 6.89762 14.058C7.99684 14.2766 9.13622 14.1644 10.1717 13.7355C11.2071 13.3066 12.0921 12.5803 12.7148 11.6484C13.3375 10.7166 13.6698 9.62096 13.6698 8.5002C13.6681 6.99781 13.0706 5.55743 12.0082 4.49508C10.9459 3.43273 9.50552 2.83518 8.00313 2.83353ZM9.13615 12.467H8.00281V8.50036H6.86948V7.36703H8.00281C8.30339 7.36703 8.59166 7.48643 8.8042 7.69897C9.01674 7.91152 9.13615 8.19978 9.13615 8.50036V12.467ZM8.85317 5.38334C8.85317 5.85278 8.47262 6.23334 8.00317 6.23334C7.53373 6.23334 7.15317 5.85278 7.15317 5.38334C7.15317 4.9139 7.53373 4.53334 8.00317 4.53334C8.47262 4.53334 8.85317 4.9139 8.85317 5.38334Z" fill="currentColor"/>
</svg>
