<svg width="60" height="60" viewBox="0 0 60 60" fill="none" xmlns="http://www.w3.org/2000/svg">
<circle opacity="0.8" cx="30" cy="30" r="26" stroke="white" stroke-width="8"/>
<mask id="path-2-inside-1_3672_8394" fill="white">
<path d="M60 30C60 26.0603 59.224 22.1593 57.7164 18.5195C56.2087 14.8797 53.999 11.5726 51.2132 8.7868C48.4274 6.00104 45.1203 3.79125 41.4805 2.28361C37.8407 0.775973 33.9397 -1.72208e-07 30 0V8.07682C32.879 8.07682 35.7298 8.64388 38.3896 9.74562C41.0495 10.8474 43.4663 12.4622 45.502 14.498C47.5378 16.5337 49.1526 18.9505 50.2544 21.6104C51.3561 24.2702 51.9232 27.121 51.9232 30H60Z"/>
</mask>
<path d="M60 30C60 26.0603 59.224 22.1593 57.7164 18.5195C56.2087 14.8797 53.999 11.5726 51.2132 8.7868C48.4274 6.00104 45.1203 3.79125 41.4805 2.28361C37.8407 0.775973 33.9397 -1.72208e-07 30 0V8.07682C32.879 8.07682 35.7298 8.64388 38.3896 9.74562C41.0495 10.8474 43.4663 12.4622 45.502 14.498C47.5378 16.5337 49.1526 18.9505 50.2544 21.6104C51.3561 24.2702 51.9232 27.121 51.9232 30H60Z" stroke="#f5b7b1" stroke-width="10" mask="url(#path-2-inside-1_3672_8394)"/>
</svg>
