<svg width="16" height="16" viewBox="0 0 16 16" fill="none" xmlns="http://www.w3.org/2000/svg">
<path fill-rule="evenodd" clip-rule="evenodd" d="M3.33325 2.66659C3.15644 2.66659 2.98687 2.73682 2.86185 2.86185C2.73682 2.98687 2.66659 3.15644 2.66659 3.33325V12.6666C2.66659 12.8434 2.73682 13.013 2.86185 13.138C2.98687 13.263 3.15644 13.3333 3.33325 13.3333H5.99992C6.36811 13.3333 6.66658 13.6317 6.66658 13.9999C6.66658 14.3681 6.36811 14.6666 5.99992 14.6666H3.33325C2.80282 14.6666 2.29411 14.4559 1.91904 14.0808C1.54397 13.7057 1.33325 13.197 1.33325 12.6666V3.33325C1.33325 2.80282 1.54397 2.29411 1.91904 1.91904C2.29411 1.54397 2.80282 1.33325 3.33325 1.33325H5.99992C6.36811 1.33325 6.66658 1.63173 6.66658 1.99992C6.66658 2.36811 6.36811 2.66659 5.99992 2.66659H3.33325Z" fill="currentColor"/>
<path fill-rule="evenodd" clip-rule="evenodd" d="M10.1953 4.19526C10.4556 3.93491 10.8777 3.93491 11.1381 4.19526L14.4714 7.5286C14.7318 7.78894 14.7318 8.21106 14.4714 8.4714L11.1381 11.8047C10.8777 12.0651 10.4556 12.0651 10.1953 11.8047C9.93491 11.5444 9.93491 11.1223 10.1953 10.8619L13.0572 8L10.1953 5.13807C9.93491 4.87772 9.93491 4.45561 10.1953 4.19526Z" fill="currentColor"/>
<path fill-rule="evenodd" clip-rule="evenodd" d="M5.33325 7.99992C5.33325 7.63173 5.63173 7.33325 5.99992 7.33325H13.9999C14.3681 7.33325 14.6666 7.63173 14.6666 7.99992C14.6666 8.36811 14.3681 8.66659 13.9999 8.66659H5.99992C5.63173 8.66659 5.33325 8.36811 5.33325 7.99992Z" fill="currentColor"/>
</svg>
