<svg width="24" height="24" viewBox="0 0 24 24" fill="none" xmlns="http://www.w3.org/2000/svg">
<path fill-rule="evenodd" clip-rule="evenodd" d="M16.1668 15C16.3316 15 16.4927 14.9497 16.6297 14.8555C16.7667 14.7613 16.8735 14.6274 16.9366 14.4708C16.9996 14.3142 17.0161 14.1419 16.984 13.9757C16.9519 13.8094 16.8725 13.6567 16.756 13.5368L12.5892 9.25097C12.4329 9.09027 12.221 9 12 9C11.779 9 11.5671 9.09027 11.4108 9.25097L7.244 13.5368C7.12748 13.6567 7.04814 13.8094 7.016 13.9757C6.98386 14.1419 7.00037 14.3142 7.06343 14.4708C7.12649 14.6274 7.23327 14.7613 7.37029 14.8555C7.5073 14.9497 7.66839 15 7.83318 15L16.1668 15Z" fill="currentColor"/>
</svg>
