<svg width="24" height="24" viewBox="0 0 24 24" fill="none" xmlns="http://www.w3.org/2000/svg">
<path fill-rule="evenodd" clip-rule="evenodd" d="M7.83319 9C7.66839 9.00004 7.5073 9.05033 7.37029 9.14452C7.23327 9.23871 7.12649 9.37257 7.06343 9.52917C7.00037 9.68577 6.98386 9.85809 7.016 10.0243C7.04814 10.1906 7.12749 10.3433 7.244 10.4632L11.4108 14.749C11.5671 14.9097 11.779 15 12 15C12.221 15 12.4329 14.9097 12.5892 14.749L16.756 10.4632C16.8725 10.3433 16.9519 10.1906 16.984 10.0243C17.0161 9.85809 16.9996 9.68577 16.9366 9.52917C16.8735 9.37257 16.7667 9.23871 16.6297 9.14452C16.4927 9.05033 16.3316 9.00004 16.1668 9H7.83319Z" fill="currentColor"/>
</svg>
