<svg width="16" height="17" viewBox="0 0 16 17" fill="none" xmlns="http://www.w3.org/2000/svg">
<path fill-rule="evenodd" clip-rule="evenodd" d="M10.1881 3.27918C9.49535 2.98738 8.75162 2.83586 7.99993 2.83339C6.49755 2.83504 5.05718 3.43259 3.99483 4.49494C2.93249 5.55728 2.33494 6.99766 2.33329 8.50004H1.19996C1.19798 7.18651 1.57704 5.9006 2.29121 4.79818C3.00538 3.69576 4.02399 2.82417 5.22357 2.28903C6.42315 1.7539 7.7522 1.57821 9.04963 1.78325C10.3471 1.9883 11.5572 2.56528 12.5332 3.44426V1.70006H13.6666V4.61442C13.6663 4.89341 13.5553 5.16089 13.358 5.35817C13.1608 5.55545 12.8933 5.66641 12.6143 5.66671H9.69993V4.53338H12.0357C11.5088 3.99727 10.8808 3.57098 10.1881 3.27918ZM12.7085 11.6594C13.335 10.725 13.6687 9.62499 13.6671 8.49996H14.8004C14.8024 9.81349 14.4233 11.0994 13.7092 12.2018C12.995 13.3042 11.9764 14.1758 10.7768 14.711C9.57722 15.2461 8.24817 15.4218 6.95074 15.2167C5.65331 15.0117 4.44321 14.4347 3.46712 13.5557V15.2999H2.33379V12.3856C2.33409 12.1066 2.44505 11.8391 2.64233 11.6418C2.83961 11.4445 3.10709 11.3336 3.38609 11.3333H6.30044V12.4666H3.96465C4.75164 13.2706 5.7604 13.8217 6.8621 14.0496C7.9638 14.2775 9.10843 14.1718 10.1498 13.746C11.1911 13.3203 12.082 12.5938 12.7085 11.6594Z" fill="currentColor"/>
</svg>
