<svg width="15" height="14" viewBox="0 0 15 14" fill="none" xmlns="http://www.w3.org/2000/svg">
<path fill-rule="evenodd" clip-rule="evenodd" d="M14.3333 0.999838C14.7015 0.999838 15 1.29831 15 1.6665V5.6665C15 6.03469 14.7015 6.33317 14.3333 6.33317H10.3333C9.96514 6.33317 9.66667 6.03469 9.66667 5.6665C9.66667 5.29831 9.96514 4.99984 10.3333 4.99984H13.6667V1.6665C13.6667 1.29831 13.9651 0.999838 14.3333 0.999838Z" fill="currentColor"/>
<path fill-rule="evenodd" clip-rule="evenodd" d="M7.7516 1.72067C6.6067 1.55827 5.44002 1.77239 4.42739 2.33074C3.41476 2.8891 2.61103 3.76144 2.13732 4.81633C1.66361 5.87121 1.54559 7.05148 1.80103 8.17928C2.05647 9.30708 2.67154 10.3213 3.55356 11.0691C4.43557 11.8169 5.53674 12.2578 6.69113 12.3254C7.84553 12.3929 8.9906 12.0834 9.95379 11.4436C10.917 10.8037 11.6461 9.86809 12.0313 8.77777C12.154 8.43061 12.5348 8.24861 12.882 8.37126C13.2292 8.49391 13.4112 8.87476 13.2885 9.22192C12.807 10.5848 11.8956 11.7543 10.6916 12.5542C9.4876 13.354 8.05626 13.7409 6.61327 13.6564C5.17028 13.572 3.79381 13.0209 2.69129 12.0861C1.58877 11.1514 0.819935 9.88357 0.500633 8.47382C0.181331 7.06407 0.328864 5.58873 0.921001 4.27012C1.51314 2.95152 2.5178 1.86108 3.78359 1.16314C5.04938 0.465195 6.50772 0.197555 7.93885 0.40055C9.36657 0.60306 10.69 1.26301 11.7108 2.28127L14.7903 5.18117C15.0583 5.43359 15.071 5.85551 14.8186 6.12355C14.5662 6.3916 14.1443 6.40427 13.8762 6.15186L10.7895 3.24519C10.7846 3.24057 10.7798 3.23587 10.775 3.2311C9.95762 2.41317 8.89651 1.88307 7.7516 1.72067Z" fill="currentColor"/>
</svg>
