<svg width="24" height="24" viewBox="0 0 24 24" fill="none" xmlns="http://www.w3.org/2000/svg">
<path fill-rule="evenodd" clip-rule="evenodd" d="M11.1 4.8C7.62061 4.8 4.8 7.62061 4.8 11.1C4.8 14.5794 7.62061 17.4 11.1 17.4C14.5794 17.4 17.4 14.5794 17.4 11.1C17.4 7.62061 14.5794 4.8 11.1 4.8ZM3 11.1C3 6.62649 6.62649 3 11.1 3C15.5735 3 19.2 6.62649 19.2 11.1C19.2 15.5735 15.5735 19.2 11.1 19.2C6.62649 19.2 3 15.5735 3 11.1Z" fill="currentColor"/>
<path fill-rule="evenodd" clip-rule="evenodd" d="M15.5486 15.5486C15.9001 15.1971 16.4699 15.1971 16.8214 15.5486L20.7364 19.4636C21.0879 19.8151 21.0879 20.3849 20.7364 20.7364C20.385 21.0879 19.8151 21.0879 19.4636 20.7364L15.5486 16.8214C15.1972 16.4699 15.1972 15.9001 15.5486 15.5486Z" fill="currentColor"/>
</svg>