<svg width="46" height="46" viewBox="0 0 46 46" fill="none" xmlns="http://www.w3.org/2000/svg">
<path fill-rule="evenodd" clip-rule="evenodd" d="M23 2.87512C11.7875 2.87512 2.875 11.7876 2.875 23.0001C2.875 34.2126 11.7875 43.1251 23 43.1251C34.2125 43.1251 43.125 34.2126 43.125 23.0001C43.125 11.7876 34.2125 2.87512 23 2.87512ZM30.7737 33.0513L23.0112 25.2888L15.2487 33.0513L12.9487 30.7513L20.7112 22.9888L12.9487 15.2263L15.2487 12.9263L23.0112 20.6888L30.7737 12.9263L33.0737 15.2263L25.3112 22.9888L33.0737 30.7513L30.7737 33.0513ZM5.75 23.0003C5.75 32.4878 13.5125 40.2503 23 40.2503C32.4875 40.2503 40.25 32.4878 40.25 23.0003C40.25 13.5128 32.4875 5.75026 23 5.75026C13.5125 5.75026 5.75 13.5128 5.75 23.0003Z" fill="currentColor"/>
</svg>
