<svg width="46" height="46" viewBox="0 0 46 46" fill="none" xmlns="http://www.w3.org/2000/svg">
<path d="M23 3.83331C12.4583 3.83331 3.83334 12.4583 3.83334 23C3.83334 33.5416 12.4583 42.1666 23 42.1666C33.5417 42.1666 42.1667 33.5416 42.1667 23C42.1667 12.4583 33.5417 3.83331 23 3.83331ZM23 38.3333C14.5475 38.3333 7.66668 31.4525 7.66668 23C7.66668 14.5475 14.5475 7.66665 23 7.66665C31.4525 7.66665 38.3333 14.5475 38.3333 23C38.3333 31.4525 31.4525 38.3333 23 38.3333ZM31.7975 14.5283L19.1667 27.1591L14.2025 22.2141L11.5 24.9166L19.1667 32.5833L34.5 17.25L31.7975 14.5283Z" fill="currentColor"/>
</svg>
