<svg width="56" height="56" viewBox="0 0 56 56" fill="none" xmlns="http://www.w3.org/2000/svg">
<g id="Icon / 56px / triangle-error">
<g id="Group">
<path id="Path" d="M23.8059 10.8921L5.82717 42.0317C4.17981 44.8888 6.23995 48.457 9.53755 48.457H45.495C48.7921 48.457 50.8529 44.8876 49.204 42.0317L31.2258 10.893C29.5784 8.03582 25.4551 8.03582 23.8059 10.8921Z" stroke="currentColor" stroke-width="2"/>
<path id="dot" fill-rule="evenodd" clip-rule="evenodd" d="M29.4629 38.4175C29.4629 39.4919 28.5917 40.3644 27.516 40.3644C26.4403 40.3644 25.5691 39.4919 25.5691 38.4175C25.5691 37.3417 26.4403 36.4706 27.516 36.4706C28.5917 36.4706 29.4629 37.3417 29.4629 38.4175Z" fill="currentColor"/>
<path id="line" d="M27.5156 21.939C28.4131 21.939 29.1528 22.6145 29.2539 23.4849L29.2656 23.689V32.7217C29.2656 33.6882 28.4821 34.4717 27.5156 34.4717C26.6182 34.4717 25.8785 33.7961 25.7774 32.9258L25.7656 32.7217V23.689C25.7656 22.7225 26.5491 21.939 27.5156 21.939Z" fill="currentColor"/>
</g>
</g>
</svg>
