<svg width="24" height="24" viewBox="0 0 24 24" fill="none" xmlns="http://www.w3.org/2000/svg">
<path fill-rule="evenodd" clip-rule="evenodd" d="M9.91756 7.68492C9.91756 6.4593 10.9111 5.46575 12.1367 5.46575C13.3624 5.46575 14.3559 6.4593 14.3559 7.68492C14.3559 8.91053 13.3624 9.90409 12.1367 9.90409C10.9111 9.90409 9.91756 8.91053 9.91756 7.68492ZM12.1367 3C9.54933 3 7.45182 5.09751 7.45182 7.68492C7.45182 10.2723 9.54933 12.3698 12.1367 12.3698C14.7241 12.3698 16.8217 10.2723 16.8217 7.68492C16.8217 5.09751 14.7241 3 12.1367 3ZM8.68492 13.3562C7.4424 13.3562 6.25077 13.8498 5.37218 14.7284C4.49359 15.607 4 16.7986 4 18.0411V19.7671C4 20.448 4.55198 21 5.23287 21C5.91377 21 6.46575 20.448 6.46575 19.7671V18.0411C6.46575 17.4525 6.69955 16.8881 7.11573 16.4719C7.5319 16.0557 8.09636 15.8219 8.68492 15.8219H15.589C16.1776 15.8219 16.742 16.0557 17.1582 16.4719C17.5744 16.8881 17.8082 17.4525 17.8082 18.0411V19.7671C17.8082 20.448 18.3602 21 19.0411 21C19.722 21 20.2739 20.448 20.2739 19.7671V18.0411C20.2739 16.7986 19.7803 15.607 18.9017 14.7284C18.0232 13.8498 16.8315 13.3562 15.589 13.3562H8.68492Z" fill="currentColor"/>
</svg>
