<svg width="14" height="14" viewBox="0 0 14 14" fill="none" xmlns="http://www.w3.org/2000/svg">
<path fill-rule="evenodd" clip-rule="evenodd" d="M13.8999 13.2999L7.3999 1.2999C7.2999 0.999901 6.9999 0.899901 6.7999 1.0999C6.6999 1.0999 6.5999 1.1999 6.5999 1.2999L0.0999023 13.2999C-9.76566e-05 13.4999 -9.76566e-05 13.5999 0.0999023 13.7999C0.199902 13.8999 0.299902 13.9999 0.499902 13.9999H13.4999C13.6999 13.9999 13.7999 13.8999 13.8999 13.7999C13.9999 13.5999 13.9999 13.3999 13.8999 13.2999ZM6.9999 12.1999C6.5999 12.1999 6.1999 11.8999 6.1999 11.3999C6.1999 10.8999 6.4999 10.5999 6.9999 10.5999C7.3999 10.5999 7.7999 10.8999 7.7999 11.3999C7.7999 11.8999 7.3999 12.1999 6.9999 12.1999ZM6.3999 5.4999H7.4999V9.4999H6.3999V5.4999Z" fill="#E99F00"/>
</svg>
